<svg xmlns="http://www.w3.org/2000/svg">
  <symbol id="website" viewBox="0 0 24 24">
    <circle cx="12" cy="12" r="9" fill="none" stroke="currentColor" stroke-width="1.8"/>
    <path d="M3.5 12h17M12 3c2.2 2.45 3.35 5.45 3.35 9S14.2 18.55 12 21M12 3C9.8 5.45 8.65 8.45 8.65 12S9.8 18.55 12 21" fill="none" stroke="currentColor" stroke-width="1.8" stroke-linecap="round"/>
  </symbol>
  <symbol id="email" viewBox="0 0 24 24">
    <rect x="3" y="5" width="18" height="14" rx="2" fill="none" stroke="currentColor" stroke-width="1.8"/>
    <path d="m4 7 8 6 8-6" fill="none" stroke="currentColor" stroke-width="1.8" stroke-linecap="round" stroke-linejoin="round"/>
  </symbol>
  <symbol id="github" viewBox="0 0 24 24">
    <path d="M15 22v-3.9c.04-1-.35-1.95-1.1-2.65 3.6-.4 7.4-1.77 7.4-8A6.25 6.25 0 0 0 19.65 3c.16-.4.2-1.75-.16-3 0 0-1.3-.42-4.5 1.7a15.5 15.5 0 0 0-8 0C3.8-.42 2.5 0 2.5 0c-.36 1.25-.32 2.6-.16 3A6.25 6.25 0 0 0 .7 7.45c0 6.22 3.8 7.6 7.4 8-.74.7-1.14 1.65-1.1 2.65V22" transform="translate(1 1) scale(.92)" fill="none" stroke="currentColor" stroke-width="1.8" stroke-linecap="round" stroke-linejoin="round"/>
    <path d="M7.2 19.2c-3.15.95-3.15-1.55-4.4-1.9" fill="none" stroke="currentColor" stroke-width="1.8" stroke-linecap="round"/>
  </symbol>
  <symbol id="api" viewBox="0 0 24 24">
    <path d="m8 7-5 5 5 5M16 7l5 5-5 5M14 4l-4 16" fill="none" stroke="currentColor" stroke-width="1.8" stroke-linecap="round" stroke-linejoin="round"/>
  </symbol>
</svg>
